<svg xmlns="http://www.w3.org/2000/svg" viewBox="0 0 640 400" role="img" aria-label="電子工程雙體驗封面">
  <defs>
    <linearGradient id="bg" x1="0" x2="1" y1="0" y2="1">
      <stop offset="0%" stop-color="#0f2742" />
      <stop offset="50%" stop-color="#0b7769" />
      <stop offset="100%" stop-color="#ff8b3d" />
    </linearGradient>
  </defs>
  <rect width="640" height="400" rx="32" fill="url(#bg)" />
  <rect x="40" y="64" width="258" height="222" rx="24" fill="rgba(255,255,255,0.14)" />
  <rect x="342" y="64" width="258" height="222" rx="24" fill="rgba(255,255,255,0.14)" />
  <rect x="74" y="106" width="190" height="108" rx="20" fill="rgba(255,255,255,0.14)" stroke="rgba(255,255,255,0.32)" />
  <rect x="102" y="134" width="54" height="52" rx="12" fill="#7cf6dc" />
  <rect x="168" y="134" width="54" height="52" rx="12" fill="#ffd276" />
  <rect x="136" y="196" width="94" height="12" rx="6" fill="rgba(255,255,255,0.72)" />
  <circle cx="470" cy="166" r="54" fill="none" stroke="rgba(255,255,255,0.82)" stroke-width="10" />
  <path d="M468 134h10l24 24-24 24h-10l20-24z" fill="#fff5e9" />
  <circle cx="470" cy="232" r="16" fill="#ffcc82" />
  <path d="M320 194c-26 0-46-20-46-46s20-46 46-46 46 20 46 46-20 46-46 46zm0-68-14 22 14 10 14-10z" fill="#fff6ea" opacity="0.96" />
  <path d="M320 220c-22 14-34 28-38 46 22-8 48-8 76 0-4-18-16-32-38-46z" fill="rgba(255,255,255,0.72)" />
  <text x="50" y="48" font-family="Segoe UI, Noto Sans TC, sans-serif" font-size="26" fill="rgba(255,255,255,0.9)">一個攤位，兩種沉浸體驗</text>
  <text x="88" y="264" font-family="Segoe UI, Noto Sans TC, sans-serif" font-size="24" fill="#fff4e8">AI 闖關區</text>
  <text x="386" y="264" font-family="Segoe UI, Noto Sans TC, sans-serif" font-size="24" fill="#fff4e8">VR 無人機區</text>
  <text x="110" y="344" font-family="Segoe UI, Noto Sans TC, sans-serif" font-size="54" font-weight="700" fill="#fffaf4">電子工程雙體驗</text>
</svg>
