<svg xmlns="http://www.w3.org/2000/svg" viewBox="0 0 480 320" role="img" aria-label="VR 無人機區核心操作">
  <defs>
    <linearGradient id="bg" x1="0" x2="1" y1="0" y2="1">
      <stop offset="0%" stop-color="#16325c" />
      <stop offset="100%" stop-color="#ff8b3d" />
    </linearGradient>
  </defs>
  <rect width="480" height="320" rx="28" fill="url(#bg)" />
  <circle cx="140" cy="156" r="54" fill="rgba(255,255,255,0.16)" />
  <rect x="94" y="132" width="92" height="42" rx="18" fill="#fff4e8" />
  <rect x="108" y="144" width="28" height="18" rx="8" fill="#16325c" />
  <rect x="144" y="144" width="28" height="18" rx="8" fill="#16325c" />
  <path d="M88 162c-18 6-28 18-28 34" fill="none" stroke="rgba(255,255,255,0.64)" stroke-width="8" stroke-linecap="round" />
  <path d="M192 162c18 6 28 18 28 34" fill="none" stroke="rgba(255,255,255,0.64)" stroke-width="8" stroke-linecap="round" />
  <circle cx="344" cy="154" r="26" fill="#fff4e8" />
  <circle cx="344" cy="154" r="12" fill="#16325c" />
  <rect x="324" y="150" width="40" height="8" rx="4" fill="#16325c" />
  <rect x="340" y="126" width="8" height="56" rx="4" fill="#16325c" />
  <circle cx="292" cy="120" r="36" fill="none" stroke="rgba(255,255,255,0.72)" stroke-width="10" />
  <path d="M284 84c28 22 44 50 48 82" fill="none" stroke="rgba(255,255,255,0.42)" stroke-width="6" stroke-dasharray="8 8" stroke-linecap="round" />
  <path d="M332 204c-18 18-46 28-76 28" fill="none" stroke="rgba(255,255,255,0.42)" stroke-width="6" stroke-dasharray="8 8" stroke-linecap="round" />
  <text x="42" y="42" font-family="Segoe UI, Noto Sans TC, sans-serif" font-size="22" fill="rgba(255,255,255,0.9)">空中冒險區核心操作</text>
  <text x="50" y="286" font-family="Segoe UI, Noto Sans TC, sans-serif" font-size="28" fill="#fff6ee">FPV 視角 + 無人機闖關</text>
</svg>
